<svg width="51" height="50" viewBox="0 0 51 50" fill="none" xmlns="http://www.w3.org/2000/svg">
<rect x="0.5" width="50" height="50" rx="5" fill="url(#paint0_linear_2001_83)"/>
<g clip-path="url(#clip0_2001_83)">
<path d="M15.5833 27.625H24.9583V37H20.7917C19.4103 37 18.0856 36.4513 17.1088 35.4745C16.1321 34.4978 15.5833 33.173 15.5833 31.7917V27.625ZM38.5 23.4583C38.5 24.0109 38.2805 24.5408 37.8898 24.9315C37.4991 25.3222 36.9692 25.5417 36.4167 25.5417H27.0417V21.3302C26.6917 21.3573 26.3427 21.375 26 21.375C25.6573 21.375 25.3083 21.3573 24.9583 21.3302V25.5417H15.5833C15.0308 25.5417 14.5009 25.3222 14.1102 24.9315C13.7195 24.5408 13.5 24.0109 13.5 23.4583C13.5 22.3533 13.939 21.2935 14.7204 20.5121C15.5018 19.7307 16.5616 19.2917 17.6667 19.2917H19.4771C18.8881 18.7725 18.4206 18.1301 18.1077 17.41C17.7949 16.6899 17.6443 15.9098 17.6667 15.125C17.6667 14.8487 17.7764 14.5838 17.9718 14.3884C18.1671 14.1931 18.4321 14.0833 18.7083 14.0833C18.9846 14.0833 19.2496 14.1931 19.4449 14.3884C19.6403 14.5838 19.75 14.8487 19.75 15.125C19.75 17.8562 22.2198 18.8021 24.0979 19.126C23.4047 17.8969 22.9874 16.5316 22.875 15.125C22.875 14.2962 23.2042 13.5013 23.7903 12.9153C24.3763 12.3292 25.1712 12 26 12C26.8288 12 27.6237 12.3292 28.2097 12.9153C28.7958 13.5013 29.125 14.2962 29.125 15.125C29.0126 16.5316 28.5953 17.8969 27.9021 19.126C29.7802 18.8021 32.25 17.8562 32.25 15.125C32.25 14.8487 32.3597 14.5838 32.5551 14.3884C32.7504 14.1931 33.0154 14.0833 33.2917 14.0833C33.5679 14.0833 33.8329 14.1931 34.0282 14.3884C34.2236 14.5838 34.3333 14.8487 34.3333 15.125C34.3557 15.9098 34.2051 16.6899 33.8923 17.41C33.5794 18.1301 33.1119 18.7725 32.5229 19.2917H34.3333C35.4384 19.2917 36.4982 19.7307 37.2796 20.5121C38.061 21.2935 38.5 22.3533 38.5 23.4583ZM24.9583 15.125C25.0841 16.2321 25.4388 17.3009 26 18.2635C26.5612 17.3009 26.9159 16.2321 27.0417 15.125C27.0417 14.8487 26.9319 14.5838 26.7366 14.3884C26.5412 14.1931 26.2763 14.0833 26 14.0833C25.7237 14.0833 25.4588 14.1931 25.2634 14.3884C25.0681 14.5838 24.9583 14.8487 24.9583 15.125ZM27.0417 37H31.2083C31.8923 37 32.5696 36.8653 33.2015 36.6035C33.8334 36.3418 34.4075 35.9582 34.8912 35.4745C35.3748 34.9909 35.7585 34.4167 36.0202 33.7848C36.2819 33.1529 36.4167 32.4756 36.4167 31.7917V27.625H27.0417V37Z" fill="white"/>
</g>
<defs>
<linearGradient id="paint0_linear_2001_83" x1="25.5" y1="0" x2="25.5" y2="50" gradientUnits="userSpaceOnUse">
<stop stop-color="#026CDF"/>
<stop offset="1" stop-color="#0063CF"/>
</linearGradient>
<clipPath id="clip0_2001_83">
<rect width="25" height="25" fill="white" transform="translate(13.5 12)"/>
</clipPath>
</defs>
</svg>
