<svg width="21" height="21" viewBox="0 0 21 21" fill="none" xmlns="http://www.w3.org/2000/svg">
<g clip-path="url(#clip0_12_3586)">
<g clip-path="url(#clip1_12_3586)">
<path fill-rule="evenodd" clip-rule="evenodd" d="M11.33 0.77002C11.5952 0.77002 11.8496 0.875391 12.0371 1.06293C12.2246 1.25046 12.33 1.5048 12.33 1.77002V7.77002C12.33 8.03524 12.2246 8.28958 12.0371 8.47711C11.8496 8.66465 11.5952 8.77002 11.33 8.77002C11.0648 8.77002 10.8104 8.66465 10.6229 8.47711C10.4354 8.28958 10.33 8.03524 10.33 7.77002V1.77002C10.33 1.5048 10.4354 1.25046 10.6229 1.06293C10.8104 0.875391 11.0648 0.77002 11.33 0.77002ZM14.33 2.77002C14.5952 2.77002 14.8496 2.87539 15.0371 3.06293C15.2246 3.25046 15.33 3.5048 15.33 3.77002V9.77002C15.33 10.0352 15.2246 10.2896 15.0371 10.4771C14.8496 10.6646 14.5952 10.77 14.33 10.77C14.0648 10.77 13.8104 10.6646 13.6229 10.4771C13.4354 10.2896 13.33 10.0352 13.33 9.77002V3.77002C13.33 3.5048 13.4354 3.25046 13.6229 3.06293C13.8104 2.87539 14.0648 2.77002 14.33 2.77002ZM8.33002 2.77002C8.59524 2.77002 8.84959 2.87539 9.03713 3.06293C9.22466 3.25046 9.33002 3.5048 9.33002 3.77002V8.77002C9.33002 9.03524 9.22466 9.28958 9.03713 9.47711C8.84959 9.66465 8.59524 9.77002 8.33002 9.77002C8.0648 9.77002 7.81045 9.66465 7.62291 9.47711C7.43538 9.28958 7.33002 9.03524 7.33002 8.77002V3.77002C7.33002 3.5048 7.43538 3.25046 7.62291 3.06293C7.81045 2.87539 8.0648 2.77002 8.33002 2.77002ZM5.33002 4.77002C5.59524 4.77002 5.84959 4.87539 6.03713 5.06293C6.22466 5.25046 6.33002 5.5048 6.33002 5.77002V9.77002C6.33002 10.0352 6.22466 10.2896 6.03713 10.4771C5.84959 10.6646 5.59524 10.77 5.33002 10.77C5.0648 10.77 4.81045 10.6646 4.62291 10.4771C4.43538 10.2896 4.33002 10.0352 4.33002 9.77002V5.77002C4.33002 5.5048 4.43538 5.25046 4.62291 5.06293C4.81045 4.87539 5.0648 4.77002 5.33002 4.77002Z" fill="#F9C0B0"/>
<path fill-rule="evenodd" clip-rule="evenodd" d="M17.33 11.77V16.2787C17.33 17.2085 17.105 18.1538 16.4552 18.8188C16.0214 19.2628 15.5244 19.6439 14.978 19.9488C14.0156 20.4858 12.9321 20.7685 11.83 20.77H10.83C9.10611 20.77 7.45282 20.0852 6.23383 18.8662C5.01484 17.6472 4.33002 15.9939 4.33002 14.27V13.27C4.3378 12.7632 4.40835 12.2594 4.54003 11.77H17.33Z" fill="#F9C0B0"/>
<path d="M18.33 6.77002H2.33002C1.22545 6.77002 0.330017 7.66545 0.330017 8.77002V13.77C0.330017 14.8746 1.22545 15.77 2.33002 15.77H18.33C19.4346 15.77 20.33 14.8746 20.33 13.77V8.77002C20.33 7.66545 19.4346 6.77002 18.33 6.77002Z" fill="#0D8F1F"/>
<path fill-rule="evenodd" clip-rule="evenodd" d="M17.33 15.8193C17.33 16.8967 16.4567 17.77 15.3793 17.77H11.6752C11.3992 17.1967 11.2853 16.5573 11.3458 15.9226C11.4064 15.2878 11.6392 14.6823 12.0185 14.1731C12.3978 13.6639 12.9088 13.2708 13.495 13.0372C14.0813 12.8036 14.7199 12.7387 15.3403 12.8495V9.77707C15.3403 9.50998 15.4451 9.25385 15.6317 9.06499C15.8182 8.87613 16.0713 8.77002 16.3351 8.77002C16.599 8.77002 16.852 8.87613 17.0386 9.06499C17.2252 9.25385 17.33 9.50998 17.33 9.77707V15.8193Z" fill="#F9C0B0"/>
</g>
</g>
<defs>
<clipPath id="clip0_12_3586">
<rect width="20" height="20" fill="white" transform="translate(0.330017 0.77002)"/>
</clipPath>
<clipPath id="clip1_12_3586">
<rect width="797" height="21" fill="white" transform="translate(0.330017 0.77002)"/>
</clipPath>
</defs>
</svg>
