<svg width="28" height="21" viewBox="0 0 28 21" fill="none" xmlns="http://www.w3.org/2000/svg">
<g clip-path="url(#clip0_12_3686)">
<g clip-path="url(#clip1_12_3686)">
<path d="M9.29999 19.77C14.2706 19.77 18.3 15.7406 18.3 10.77C18.3 5.79946 14.2706 1.77002 9.29999 1.77002C4.32939 1.77002 0.299988 5.79946 0.299988 10.77C0.299988 15.7406 4.32939 19.77 9.29999 19.77Z" fill="#E70025"/>
<path d="M18.3 19.77C23.2706 19.77 27.3 15.7406 27.3 10.77C27.3 5.79946 23.2706 1.77002 18.3 1.77002C13.3294 1.77002 9.29999 5.79946 9.29999 10.77C9.29999 15.7406 13.3294 19.77 18.3 19.77Z" fill="#F59E2D"/>
<path fill-rule="evenodd" clip-rule="evenodd" d="M13.8 2.97412C11.1099 4.53026 9.29999 7.43881 9.29999 10.7701C9.29999 14.1013 11.1099 17.0099 13.8 18.566C16.4901 17.0099 18.3 14.1013 18.3 10.7701C18.3 7.43881 16.4901 4.53026 13.8 2.97412Z" fill="#FC5D1D"/>
</g>
</g>
<defs>
<clipPath id="clip0_12_3686">
<rect width="27" height="20" fill="white" transform="translate(0.299988 0.77002)"/>
</clipPath>
<clipPath id="clip1_12_3686">
<rect width="797" height="21" fill="white" transform="translate(-66.7 0.77002)"/>
</clipPath>
</defs>
</svg>
