<svg width="40" height="21" viewBox="0 0 40 21" fill="none" xmlns="http://www.w3.org/2000/svg">
<g clip-path="url(#clip0_12_3786)">
<g clip-path="url(#clip1_12_3786)">
<path fill-rule="evenodd" clip-rule="evenodd" d="M35.9326 14.6645C36.0275 15.0848 36.3108 16.7561 36.3108 16.7561L36.3133 16.7609H39.27L36.6696 4.78125H34.2057C33.817 4.78125 33.4962 4.81797 33.1947 5.00029C32.8932 5.1826 32.6649 5.45907 32.5474 5.78407L27.8313 16.7561H31.1662C31.1662 16.7561 31.7316 14.9928 31.845 14.6645H35.9326ZM33.51 10.5678C33.8368 9.7323 34.1637 8.89675 34.4444 8.04712C34.6222 8.84685 34.7915 9.6482 34.9607 10.4495C35.1071 11.1425 35.2535 11.8356 35.4054 12.5276H32.7677C33.0006 11.8699 33.2553 11.2189 33.51 10.5678Z" fill="#3156FF"/>
<path d="M23.5896 8.29197C23.6093 7.7822 24.1748 7.27243 25.4376 7.27243C26.3796 7.2425 27.2432 7.48472 28.09 7.84785L28.5236 5.26081C27.6072 4.93129 26.6368 4.76505 25.6593 4.77013C22.5117 4.77013 20.3077 6.39736 20.288 8.70982C20.2705 10.3344 21.7098 11.0008 22.8873 11.5459C22.9514 11.5756 23.0148 11.605 23.0771 11.6341C24.3214 12.2167 24.7354 12.5999 24.7354 13.1276C24.626 13.9957 23.7213 14.2771 22.8347 14.2776C21.6431 14.2782 20.2097 13.8293 19.4022 13.4559L18.9698 16.1337C20.0993 16.5575 21.3005 16.7733 22.5117 16.77C25.87 16.77 28.037 15.169 28.0555 12.7109C28.074 11.3452 27.2264 10.6032 25.3982 9.76754C24.2684 9.22076 23.5896 8.85785 23.5896 8.29197Z" fill="#3156FF"/>
<path d="M15.7901 4.81787L13.7919 16.7562H16.9777L18.9747 4.81787H15.7901Z" fill="#3156FF"/>
<path d="M3.29762 6.45628L6.12302 16.756H9.49612L14.5089 4.81764H11.1358L8.01032 12.9465C7.51042 10.5365 7.00312 8.12804 6.49172 5.72014C6.43032 5.45314 6.27102 5.21357 6.04052 5.04144C5.81002 4.86932 5.52222 4.77507 5.22512 4.77441H0.27002V5.12978C1.28402 5.40527 2.33982 5.79783 3.25102 6.29057L3.29762 6.45628Z" fill="#3156FF"/>
</g>
</g>
<defs>
<clipPath id="clip0_12_3786">
<rect width="39" height="20" fill="white" transform="translate(0.27002 0.77002)"/>
</clipPath>
<clipPath id="clip1_12_3786">
<rect width="797" height="21" fill="white" transform="translate(-23.73 0.77002)"/>
</clipPath>
</defs>
</svg>
