<svg width="17" height="21" viewBox="0 0 17 21" fill="none" xmlns="http://www.w3.org/2000/svg">
<g clip-path="url(#clip0_12_3986)">
<g clip-path="url(#clip1_12_3986)">
<path fill-rule="evenodd" clip-rule="evenodd" d="M14.902 15.2325L12.584 16.0972C12.509 16.1234 12.428 16.1191 12.357 16.0853C12.286 16.0515 12.23 15.9907 12.201 15.9157L11 12.5798H5.375L4.177 15.9087C4.149 15.9838 4.093 16.0448 4.022 16.0789C3.951 16.1129 3.87002 16.1174 3.79602 16.0913L1.48102 15.2266C1.44402 15.2149 1.41001 15.1958 1.38101 15.1704C1.35201 15.145 1.328 15.1139 1.311 15.0789C1.293 15.0438 1.28301 15.0056 1.28101 14.9664C1.27801 14.9273 1.28302 14.888 1.29602 14.8509L5.97702 2.247C6.16502 1.80771 6.474 1.43417 6.866 1.17191C7.257 0.909659 7.71501 0.77002 8.18301 0.77002C8.65001 0.77002 9.108 0.909659 9.5 1.17191C9.892 1.43417 10.2 1.80771 10.389 2.247L15.087 14.858C15.1 14.895 15.105 14.9342 15.102 14.9733C15.099 15.0123 15.089 15.0505 15.072 15.0854C15.055 15.1204 15.031 15.1514 15.002 15.1767C14.973 15.202 14.939 15.221 14.902 15.2325ZM8.55502 5.42744L8.186 4.36731V4.35904L6.06802 10.2051H10.306L8.55502 5.42744ZM1.29501 18.4507H15.105C15.399 18.4603 15.677 18.5867 15.882 18.8031C16.086 19.0195 16.2 19.309 16.2 19.6103C16.2 19.9116 16.086 20.2012 15.882 20.4176C15.677 20.634 15.399 20.7604 15.105 20.77H1.29501C1.00101 20.7604 0.723005 20.634 0.518005 20.4176C0.314005 20.2012 0.200012 19.9116 0.200012 19.6103C0.200012 19.309 0.314005 19.0195 0.518005 18.8031C0.723005 18.5867 1.00101 18.4603 1.29501 18.4507Z" fill="#FC0018"/>
</g>
</g>
<defs>
<clipPath id="clip0_12_3986">
<rect width="16" height="20" fill="white" transform="translate(0.200012 0.77002)"/>
</clipPath>
<clipPath id="clip1_12_3986">
<rect width="797" height="21" fill="white" transform="translate(-369.8 0.77002)"/>
</clipPath>
</defs>
</svg>
