<svg width="29" height="21" viewBox="0 0 29 21" fill="none" xmlns="http://www.w3.org/2000/svg">
<g clip-path="url(#clip0_12_4186)">
<g clip-path="url(#clip1_12_4186)">
<path fill-rule="evenodd" clip-rule="evenodd" d="M18.06 20.77C23.627 20.77 28.14 16.2928 28.14 10.77C28.14 5.24717 23.627 0.77002 18.06 0.77002C12.493 0.77002 7.98001 5.24717 7.98001 10.77C7.98001 16.2928 12.493 20.77 18.06 20.77ZM18.06 14.6589C20.225 14.6589 21.98 12.9178 21.98 10.77C21.98 8.62225 20.225 6.88113 18.06 6.88113C15.895 6.88113 14.14 8.62225 14.14 10.77C14.14 12.9178 15.895 14.6589 18.06 14.6589Z" fill="#8A42F9"/>
<path d="M7.98001 4.10352H0.140015L4.32101 17.4369H7.98001V4.10352Z" fill="#8A42F9"/>
</g>
</g>
<defs>
<clipPath id="clip0_12_4186">
<rect width="28" height="20" fill="white" transform="translate(0.140015 0.77002)"/>
</clipPath>
<clipPath id="clip1_12_4186">
<rect width="797" height="21" fill="white" transform="translate(-454.86 0.77002)"/>
</clipPath>
</defs>
</svg>
