<svg width="21" height="21" viewBox="0 0 21 21" fill="none" xmlns="http://www.w3.org/2000/svg">
<g clip-path="url(#clip0_12_4286)">
<g clip-path="url(#clip1_12_4286)">
<path d="M13.632 11.4431L17.71 19.97H11.31L7.96399 12.9729C7.42499 13.3719 6.99898 13.9171 6.74298 14.5508C6.56898 14.98 6.474 15.45 6.474 15.9424C6.474 16.8616 6.80697 17.702 7.35797 18.3468C6.81497 19.7646 5.45399 20.77 3.85999 20.77C1.78899 20.77 0.109985 19.0718 0.109985 16.9769C0.109985 16.5235 0.189008 16.0886 0.333008 15.6855C1.09201 12.9134 3.68901 10.6533 6.58801 10.0969L2.51001 1.57005H8.90997L12.256 8.56705C12.795 8.16811 13.221 7.62289 13.477 6.98922C13.651 6.55997 13.746 6.09003 13.746 5.5976C13.746 4.67842 13.413 3.838 12.862 3.19325C13.405 1.77539 14.766 0.77002 16.36 0.77002C18.431 0.77002 20.11 2.46824 20.11 4.56311C20.11 5.01619 20.031 5.45073 19.887 5.85354C19.129 8.62612 16.531 10.8866 13.632 11.4431Z" fill="#FD6A5E"/>
</g>
</g>
<defs>
<clipPath id="clip0_12_4286">
<rect width="20" height="20" fill="white" transform="translate(0.109985 0.77002)"/>
</clipPath>
<clipPath id="clip1_12_4286">
<rect width="797" height="21" fill="white" transform="translate(-542.89 0.77002)"/>
</clipPath>
</defs>
</svg>
