<svg width="62" height="21" viewBox="0 0 62 21" fill="none" xmlns="http://www.w3.org/2000/svg">
<g clip-path="url(#clip0_12_4386)">
<g clip-path="url(#clip1_12_4386)">
<path d="M61.08 4.77002C61.08 3.11317 59.737 1.77002 58.08 1.77002H3.07996C1.42296 1.77002 0.0799561 3.11317 0.0799561 4.77002V16.77C0.0799561 18.4269 1.42296 19.77 3.07996 19.77H58.08C59.737 19.77 61.08 18.4269 61.08 16.77V4.77002Z" fill="#FFDD2D"/>
<path d="M10.706 14.5319V8.99222H13.383V6.97635H6.07996V8.99222H8.75696V14.5319H10.706ZM16.112 6.97635H14.163V14.5319H16.112V6.97635ZM17.539 6.97635V14.5319H19.332V10.3573L22.672 14.5319H24.335V6.97635H22.542V11.1192L19.28 6.97635H17.539ZM28.166 11.6748L30.414 14.5319H32.922L29.7899 10.5954L32.805 6.97635H30.4399L28.166 9.81758H27.646V6.97635H25.762V14.5319H27.646V11.6748H28.166ZM36.799 6.77002C34.2659 6.77002 32.744 8.51605 32.744 10.77C32.744 13.0239 34.2659 14.77 36.799 14.77C39.32 14.77 40.84 13.0239 40.84 10.77C40.84 8.51605 39.32 6.77002 36.799 6.77002ZM36.799 12.9287C35.5389 12.9287 34.733 12.008 34.733 10.77C34.733 9.53191 35.5389 8.62717 36.799 8.62717C38.0469 8.62717 38.866 9.53191 38.866 10.77C38.866 12.008 38.0469 12.9287 36.799 12.9287ZM47.986 6.97635H41.735V14.5319H43.62V12.0071H47.713V10.3404H43.62V8.89706H47.986V6.97635ZM55.08 6.97635H48.83V14.5319H50.714V12.0071H54.8069V10.3404H50.714V8.89706H55.08V6.97635Z" fill="black"/>
</g>
</g>
<defs>
<clipPath id="clip0_12_4386">
<rect width="61" height="20" fill="white" transform="translate(0.0799561 0.77002)"/>
</clipPath>
<clipPath id="clip1_12_4386">
<rect width="797" height="21" fill="white" transform="translate(-389.92 0.77002)"/>
</clipPath>
</defs>
</svg>
