<svg width="11" height="13" viewBox="0 0 11 13" fill="none" xmlns="http://www.w3.org/2000/svg">
<path d="M6.13636 10.3182V9.70455C6.13636 9.2803 6.22349 8.89205 6.39773 8.53977C6.57576 8.18371 6.83333 7.89962 7.17045 7.6875C7.51136 7.47159 7.92424 7.36364 8.40909 7.36364C8.90152 7.36364 9.31439 7.47159 9.64773 7.6875C9.98106 7.89962 10.233 8.18371 10.4034 8.53977C10.5739 8.89205 10.6591 9.2803 10.6591 9.70455V10.3182C10.6591 10.7424 10.572 11.1326 10.3977 11.4886C10.2273 11.8409 9.97349 12.125 9.63636 12.3409C9.30303 12.553 8.89394 12.6591 8.40909 12.6591C7.91667 12.6591 7.50189 12.553 7.16477 12.3409C6.82765 12.125 6.57197 11.8409 6.39773 11.4886C6.22349 11.1326 6.13636 10.7424 6.13636 10.3182ZM7.29545 9.70455V10.3182C7.29545 10.6705 7.37879 10.9867 7.54545 11.267C7.71212 11.5436 8 11.6818 8.40909 11.6818C8.80682 11.6818 9.08712 11.5436 9.25 11.267C9.41667 10.9867 9.5 10.6705 9.5 10.3182V9.70455C9.5 9.35227 9.42045 9.03788 9.26136 8.76136C9.10227 8.48106 8.81818 8.34091 8.40909 8.34091C8.01136 8.34091 7.72538 8.48106 7.55114 8.76136C7.38068 9.03788 7.29545 9.35227 7.29545 9.70455ZM0.340909 3.65909V3.04545C0.340909 2.62121 0.42803 2.23295 0.602273 1.88068C0.780303 1.52462 1.03788 1.24053 1.375 1.02841C1.71591 0.8125 2.12879 0.704545 2.61364 0.704545C3.10606 0.704545 3.51894 0.8125 3.85227 1.02841C4.18561 1.24053 4.4375 1.52462 4.60795 1.88068C4.77841 2.23295 4.86364 2.62121 4.86364 3.04545V3.65909C4.86364 4.08333 4.77652 4.47348 4.60227 4.82955C4.43182 5.18182 4.17803 5.46591 3.84091 5.68182C3.50758 5.89394 3.09848 6 2.61364 6C2.12121 6 1.70644 5.89394 1.36932 5.68182C1.0322 5.46591 0.776515 5.18182 0.602273 4.82955C0.42803 4.47348 0.340909 4.08333 0.340909 3.65909ZM1.5 3.04545V3.65909C1.5 4.01136 1.58333 4.32765 1.75 4.60795C1.91667 4.88447 2.20455 5.02273 2.61364 5.02273C3.01136 5.02273 3.29167 4.88447 3.45455 4.60795C3.62121 4.32765 3.70455 4.01136 3.70455 3.65909V3.04545C3.70455 2.69318 3.625 2.37879 3.46591 2.10227C3.30682 1.82197 3.02273 1.68182 2.61364 1.68182C2.21591 1.68182 1.92992 1.82197 1.75568 2.10227C1.58523 2.37879 1.5 2.69318 1.5 3.04545ZM0.772727 12.5L8.77273 0.863636H10.0682L2.06818 12.5H0.772727Z" fill="#EB5757"/>
</svg>
