<svg width="40" height="40" viewBox="0 0 40 40" fill="none" xmlns="http://www.w3.org/2000/svg">
<rect width="40" height="40" rx="8" fill="#F4F4F4"/>
<g clip-path="url(#clip0_12_3354)">
<g clip-path="url(#clip1_12_3354)">
<path fill-rule="evenodd" clip-rule="evenodd" d="M11.375 19.3184C16.744 16.9193 20.324 15.3377 22.115 14.5735C27.229 12.3917 28.292 12.0127 28.985 12.0001C29.137 11.9974 29.478 12.0361 29.698 12.2197C29.885 12.3748 29.936 12.5843 29.96 12.7313C29.985 12.8783 30.015 13.2132 29.991 13.4749C29.714 16.4617 28.515 23.7098 27.905 27.055C27.646 28.4705 27.138 28.9451 26.646 28.9916C25.577 29.0925 24.764 28.2667 23.729 27.5702C22.108 26.4805 21.192 25.8021 19.619 24.7387C17.801 23.5097 18.979 22.8343 20.015 21.7304C20.287 21.4415 24.999 17.0455 25.09 16.6467C25.101 16.5968 25.112 16.4109 25.004 16.3127C24.897 16.2146 24.738 16.2481 24.623 16.2748C24.46 16.3127 21.871 18.0681 16.855 21.541C16.12 22.0587 15.454 22.3109 14.858 22.2977C14.2 22.2831 12.935 21.9163 11.995 21.6028C10.842 21.2183 9.92499 21.015 10.005 20.362C10.046 20.0218 10.503 19.674 11.375 19.3184Z" fill="#24A1DE"/>
</g>
</g>
<defs>
<clipPath id="clip0_12_3354">
<rect width="20" height="20" fill="white" transform="translate(10 10)"/>
</clipPath>
<clipPath id="clip1_12_3354">
<rect width="836" height="44" fill="white" transform="translate(-158 10)"/>
</clipPath>
</defs>
</svg>
