<svg width="40" height="40" viewBox="0 0 40 40" fill="none" xmlns="http://www.w3.org/2000/svg">
<rect width="40" height="40" rx="8" fill="#F4F4F4"/>
<g clip-path="url(#clip0_12_3469)">
<g clip-path="url(#clip1_12_3469)">
<path fill-rule="evenodd" clip-rule="evenodd" d="M10 30L11.413 24.8644C10.54 23.3579 10.081 21.6489 10.083 19.9099C10.086 14.4456 14.553 10 20.042 10C21.35 10.0002 22.645 10.257 23.854 10.7556C25.063 11.2541 26.161 11.9848 27.085 12.9058C28.01 13.8268 28.743 14.92 29.244 16.1232C29.744 17.3263 30.001 18.6157 30 19.9177C29.998 25.3821 25.53 29.8281 20.042 29.8281H20.038C18.375 29.8281 16.739 29.4134 15.279 28.6219L10 30ZM15.523 26.8277L15.826 27.0062C17.101 27.758 18.556 28.1546 20.038 28.1544H20.042C24.604 28.1544 28.317 24.4591 28.319 19.9171C28.319 18.8352 28.106 17.7638 27.69 16.7641C27.275 15.7643 26.666 14.8557 25.897 14.0903C25.129 13.3248 24.217 12.7175 23.213 12.3029C22.209 11.8882 21.132 11.6745 20.045 11.6739C15.48 11.6739 11.767 15.3688 11.765 19.9105C11.763 21.4613 12.201 22.9811 13.03 24.2942L13.227 24.6059L12.391 27.6455L15.523 26.8277ZM25.059 22.2746C24.996 22.1713 24.831 22.1093 24.582 21.9854C24.333 21.8614 23.11 21.2624 22.882 21.1797C22.654 21.0969 22.488 21.0557 22.322 21.3036C22.156 21.5515 21.679 22.1093 21.534 22.2746C21.389 22.4398 21.244 22.4605 20.995 22.3366C20.746 22.2126 19.944 21.9511 18.994 21.1075C18.254 20.4508 17.755 19.6399 17.61 19.392C17.464 19.1441 17.594 19.0101 17.719 18.8867C17.831 18.7757 17.968 18.5974 18.092 18.4528C18.216 18.3082 18.258 18.2049 18.341 18.0397C18.424 17.8745 18.382 17.7298 18.32 17.6058C18.258 17.4819 17.76 16.2629 17.553 15.7671C17.351 15.2843 17.146 15.3497 16.993 15.342C16.848 15.3349 16.682 15.3333 16.516 15.3333C16.39 15.3366 16.266 15.3658 16.152 15.4191C16.038 15.4725 15.936 15.5488 15.853 15.6432C15.625 15.8911 14.982 16.4902 14.982 17.709C14.982 18.9278 15.873 20.1054 15.998 20.2707C16.122 20.436 17.752 22.9371 20.248 24.0098C20.712 24.2085 21.185 24.3826 21.667 24.5314C22.263 24.7199 22.805 24.6935 23.234 24.6296C23.712 24.5585 24.706 24.0305 24.914 23.452C25.121 22.8734 25.121 22.3779 25.059 22.2746Z" fill="#34D36A"/>
</g>
</g>
<defs>
<clipPath id="clip0_12_3469">
<rect width="20" height="20" fill="white" transform="translate(10 10)"/>
</clipPath>
<clipPath id="clip1_12_3469">
<rect width="836" height="44" fill="white" transform="translate(-182 10)"/>
</clipPath>
</defs>
</svg>
