<svg width="16" height="17" viewBox="0 0 16 17" fill="none" xmlns="http://www.w3.org/2000/svg">
<g clip-path="url(#clip0_19_2030)">
<path fill-rule="evenodd" clip-rule="evenodd" d="M8.00001 1.83331C4.31801 1.83331 1.33334 4.81798 1.33334 8.49998C1.33334 9.75998 1.68334 10.94 2.29201 11.9453L1.69734 13.9666C1.6632 14.0827 1.66095 14.2058 1.69084 14.323C1.72073 14.4403 1.78164 14.5473 1.86718 14.6328C1.95272 14.7183 2.05973 14.7793 2.17695 14.8092C2.29418 14.839 2.41729 14.8368 2.53334 14.8026L4.55468 14.208C5.59379 14.8367 6.78549 15.1683 8.00001 15.1666C11.682 15.1666 14.6667 12.182 14.6667 8.49998C14.6667 4.81798 11.682 1.83331 8.00001 1.83331ZM6.49201 10.0086C7.84068 11.3566 9.12801 11.5346 9.58268 11.5513C10.274 11.5766 10.9473 11.0486 11.2093 10.436C11.2424 10.3598 11.2544 10.2761 11.2441 10.1936C11.2338 10.1112 11.2015 10.033 11.1507 9.96731C10.7853 9.50065 10.2913 9.16531 9.80868 8.83198C9.7079 8.7623 9.58406 8.73435 9.46313 8.75399C9.34219 8.77362 9.23356 8.83933 9.16001 8.93731L8.76001 9.54731C8.73898 9.58011 8.70621 9.60362 8.66841 9.61304C8.63061 9.62246 8.59063 9.61707 8.55668 9.59798C8.28534 9.44265 7.89001 9.17865 7.60601 8.89465C7.32201 8.61065 7.07401 8.23331 6.93468 7.97931C6.9174 7.94704 6.91241 7.90961 6.92062 7.87393C6.92883 7.83826 6.9497 7.80678 6.97934 7.78531L7.59534 7.32798C7.68325 7.25154 7.73999 7.14545 7.75474 7.02989C7.76949 6.91433 7.74123 6.79738 7.67534 6.70131C7.37668 6.26398 7.02868 5.70798 6.52401 5.33931C6.45888 5.29212 6.38259 5.26269 6.30263 5.25392C6.22268 5.24515 6.14182 5.25735 6.06801 5.28931C5.45468 5.55198 4.92401 6.22531 4.94934 6.91798C4.96601 7.37265 5.14401 8.65998 6.49201 10.0086Z" fill="white"/>
</g>
<defs>
<clipPath id="clip0_19_2030">
<rect width="16" height="16" fill="white" transform="translate(0 0.5)"/>
</clipPath>
</defs>
</svg>
